HIERARCHY
ROOT hips
{
  OFFSET 0 10.6860622 2.3727825e-15
  CHANNELS 6 Xposition Yposition Zposition Yrotation Xrotation Zrotation
  JOINT leftUpperLeg
  {
    OFFSET 0.6642549969 -0.9402397400000004 0
    CHANNELS 3 Yrotation Xrotation Zrotation
    JOINT leftLowerLeg
    {
      OFFSET 0 -3.997221335632195 0
      CHANNELS 3 Yrotation Xrotation Zrotation
      JOINT leftFoot
      {
        OFFSET -0.13777839790000004 -4.6145792000000005 -0.22186036399999998
        CHANNELS 3 Yrotation Xrotation Zrotation
        JOINT leftToes
        {
          OFFSET -0.03777410834999995 -0.9130806927000008 0.85230013
          CHANNELS 3 Yrotation Xrotation Zrotation
          End Site
          {
            OFFSET -0.03777410834999995 -0.9130806927000008 0.85230013
          }
        }
      }
    }
  }
  JOINT rightUpperLeg
  {
    OFFSET -0.6642778626 -0.9402397400000004 0
    CHANNELS 3 Yrotation Xrotation Zrotation
    JOINT rightLowerLeg
    {
      OFFSET 0 -3.997221452859387 0
      CHANNELS 3 Yrotation Xrotation Zrotation
      JOINT rightFoot
      {
        OFFSET 0.1377926176 -4.6145792000000005 -0.22185782299999995
        CHANNELS 3 Yrotation Xrotation Zrotation
        JOINT rightToes
        {
          OFFSET 0.037780746850000047 -0.9130806927000008 0.85230167
          CHANNELS 3 Yrotation Xrotation Zrotation
          End Site
          {
            OFFSET 0.037780746850000047 -0.9130806927000008 0.85230167
          }
        }
      }
    }
  }
  JOINT spine
  {
    OFFSET 0 0.13988381660000015 0
    CHANNELS 3 Yrotation Xrotation Zrotation
    JOINT chest
    {
      OFFSET 0 0.6191039003973773 0
      CHANNELS 3 Yrotation Xrotation Zrotation
      JOINT upperChest
      {
        OFFSET 0 0.9855186130586943 0
        CHANNELS 3 Yrotation Xrotation Zrotation
        JOINT leftShoulder
        {
          OFFSET 0.1807663869 1.5087829790000005 0
          CHANNELS 3 Yrotation Xrotation Zrotation
          JOINT leftUpperArm
          {
            OFFSET 0.5985063006419806 0 0
            CHANNELS 3 Yrotation Xrotation Zrotation
            JOINT leftLowerArm
            {
              OFFSET 2.2993332369501065 0 0
              CHANNELS 3 Yrotation Xrotation Zrotation
              JOINT leftHand
              {
                OFFSET 2.395047042602395 0 0
                CHANNELS 3 Yrotation Xrotation Zrotation
                JOINT leftIndexProximal
                {
                  OFFSET 0.5766295810000004 0.04556643899499946 0.17265095988184
                  CHANNELS 3 Yrotation Xrotation Zrotation
                  JOINT leftIndexIntermediate
                  {
                    OFFSET 0.2957229000000008 -0.019352197700001517 -0.007932640616999987
                    CHANNELS 3 Yrotation Xrotation Zrotation
                    JOINT leftIndexDistal
                    {
                      OFFSET 0.19008243099999922 -0.012484908149998475 -0.002786250786000012
                      CHANNELS 3 Yrotation Xrotation Zrotation
                      End Site
                      {
                        OFFSET 0.19008243099999922 -0.012484908149998475 -0.002786250786000012
                      }
                    }
                  }
                }
                JOINT leftMiddleProximal
                {
                  OFFSET 0.5834975091000001 0.0524350405149987 0.02204081888183999
                  CHANNELS 3 Yrotation Xrotation Zrotation
                  JOINT leftMiddleIntermediate
                  {
                    OFFSET 0.33880573540000003 -0.019871473270000717 -0.00000971183179999946
                    CHANNELS 3 Yrotation Xrotation Zrotation
                    JOINT leftMiddleDistal
                    {
                      OFFSET 0.20676022730000088 -0.012221336379999448 0.0001471936708000235
                      CHANNELS 3 Yrotation Xrotation Zrotation
                      End Site
                      {
                        OFFSET 0.20676022730000088 -0.012221336379999448 0.0001471936708000235
                      }
                    }
                  }
                }
                JOINT leftLittleProximal
                {
                  OFFSET 0.5344154683999995 -0.012880921405001189 -0.24414037221816004
                  CHANNELS 3 Yrotation Xrotation Zrotation
                  JOINT leftLittleIntermediate
                  {
                    OFFSET 0.21758961730000093 -0.011650919939999227 0.011893592810000034
                    CHANNELS 3 Yrotation Xrotation Zrotation
                    JOINT leftLittleDistal
                    {
                      OFFSET 0.1475273964999999 -0.008152365682999818 0.006001092492999946
                      CHANNELS 3 Yrotation Xrotation Zrotation
                      End Site
                      {
                        OFFSET 0.1475273964999999 -0.008152365682999818 0.006001092492999946
                      }
                    }
                  }
                }
                JOINT leftRingProximal
                {
                  OFFSET 0.5799399463000003 0.026911854694997794 -0.12150566991816003
                  CHANNELS 3 Yrotation Xrotation Zrotation
                  JOINT leftRingIntermediate
                  {
                    OFFSET 0.26167887460000006 -0.013480186499999602 0.010996293000000053
                    CHANNELS 3 Yrotation Xrotation Zrotation
                    JOINT leftRingDistal
                    {
                      OFFSET 0.17667108799999987 -0.008990287899999228 0.0055541023999999065
                      CHANNELS 3 Yrotation Xrotation Zrotation
                      End Site
                      {
                        OFFSET 0.17667108799999987 -0.008990287899999228 0.0055541023999999065
                      }
                    }
                  }
                }
                JOINT leftThumbProximal
                {
                  OFFSET 0.11018806699999972 -0.09448718900500053 0.17047963138184
                  CHANNELS 3 Yrotation Xrotation Zrotation
                  JOINT leftThumbIntermediate
                  {
                    OFFSET 0.31062601459999983 -0.08126270900000132 0.15443142000000007
                    CHANNELS 3 Yrotation Xrotation Zrotation
                    JOINT leftThumbDistal
                    {
                      OFFSET 0.21627175790000086 -0.08833193599999878 0.018771167799999988
                      CHANNELS 3 Yrotation Xrotation Zrotation
                      End Site
                      {
                        OFFSET 0.21627175790000086 -0.08833193599999878 0.018771167799999988
                      }
                    }
                  }
                }
              }
            }
          }
        }
        JOINT neck
        {
          OFFSET 0 1.5463305265074576 0
          CHANNELS 3 Yrotation Xrotation Zrotation
          JOINT head
          {
            OFFSET 0 0.8456443600000344 0
            CHANNELS 3 Yrotation Xrotation Zrotation
            JOINT leftEye
            {
              OFFSET 0.30408573140000006 0.5104519199999995 0.1276382305
              CHANNELS 3 Yrotation Xrotation Zrotation
              End Site
              {
                OFFSET 0.30408573140000006 0.5104519199999995 0.1276382305
              }
            }
            JOINT rightEye
            {
              OFFSET -0.30409491089999996 0.5104519199999995 0.1276379445
              CHANNELS 3 Yrotation Xrotation Zrotation
              End Site
              {
                OFFSET -0.30409491089999996 0.5104519199999995 0.1276379445
              }
            }
            JOINT jaw
            {
              OFFSET -3.155239131000001e-7 -0.11984121820000082 0.60178107
              CHANNELS 3 Yrotation Xrotation Zrotation
              End Site
              {
                OFFSET -3.155239131000001e-7 -0.11984121820000082 0.60178107
              }
            }
          }
        }
        JOINT rightShoulder
        {
          OFFSET -0.1807303465 1.5087829790000005 0
          CHANNELS 3 Yrotation Xrotation Zrotation
          JOINT rightUpperArm
          {
            OFFSET -0.5985063796536958 0 0
            CHANNELS 3 Yrotation Xrotation Zrotation
            JOINT rightLowerArm
            {
              OFFSET -2.2993322059002854 0 0
              CHANNELS 3 Yrotation Xrotation Zrotation
              JOINT rightHand
              {
                OFFSET -2.395045314457259 0 0
                CHANNELS 3 Yrotation Xrotation Zrotation
                JOINT rightIndexProximal
                {
                  OFFSET -0.5764487688300002 0.0441371204405987 0.17361932004999997
                  CHANNELS 3 Yrotation Xrotation Zrotation
                  JOINT rightIndexIntermediate
                  {
                    OFFSET -0.29573011380000047 -0.01934826376999843 -0.007698921482999974
                    CHANNELS 3 Yrotation Xrotation Zrotation
                    JOINT rightIndexDistal
                    {
                      OFFSET -0.19008373999999884 -0.012503266380000655 -0.0026365778999999897
                      CHANNELS 3 Yrotation Xrotation Zrotation
                      End Site
                      {
                        OFFSET -0.19008373999999884 -0.012503266380000655 -0.0026365778999999897
                      }
                    }
                  }
                }
                JOINT rightMiddleProximal
                {
                  OFFSET -0.5834852037300005 0.05211639405060153 0.02307162440000001
                  CHANNELS 3 Yrotation Xrotation Zrotation
                  JOINT rightMiddleIntermediate
                  {
                    OFFSET -0.33880114510000003 -0.019952774050000954 0.0002455003561999819
                    CHANNELS 3 Yrotation Xrotation Zrotation
                    JOINT rightMiddleDistal
                    {
                      OFFSET -0.20675694929999955 -0.012273788999999091 0.00030209124000002766
                      CHANNELS 3 Yrotation Xrotation Zrotation
                      End Site
                      {
                        OFFSET -0.20675694929999955 -0.012273788999999091 0.00030209124000002766
                      }
                    }
                  }
                }
                JOINT rightLittleProximal
                {
                  OFFSET -0.5346811737299992 -0.011214256288399227 -0.24363941305000003
                  CHANNELS 3 Yrotation Xrotation Zrotation
                  JOINT rightLittleIntermediate
                  {
                    OFFSET -0.21757715980000092 -0.011771559690000988 0.01201554387
                    CHANNELS 3 Yrotation Xrotation Zrotation
                    JOINT rightLittleDistal
                    {
                      OFFSET -0.1475201849000004 -0.00822055339600003 0.006082065407000015
                      CHANNELS 3 Yrotation Xrotation Zrotation
                      End Site
                      {
                        OFFSET -0.1475201849000004 -0.00822055339600003 0.006082065407000015
                      }
                    }
                  }
                }
                JOINT rightRingProximal
                {
                  OFFSET -0.5800810755299999 0.027657985680600072 -0.12066365025000003
                  CHANNELS 3 Yrotation Xrotation Zrotation
                  JOINT rightRingIntermediate
                  {
                    OFFSET -0.26166445029999974 -0.013623118409999302 0.011164098990000045
                    CHANNELS 3 Yrotation Xrotation Zrotation
                    JOINT rightRingDistal
                    {
                      OFFSET -0.17666387530000027 -0.009072900100000503 0.005668185599999959
                      CHANNELS 3 Yrotation Xrotation Zrotation
                      End Site
                      {
                        OFFSET -0.17666387530000027 -0.009072900100000503 0.005668185599999959
                      }
                    }
                  }
                }
                JOINT rightThumbProximal
                {
                  OFFSET -0.10997596379000074 -0.09577489355940072 0.16989765924999997
                  CHANNELS 3 Yrotation Xrotation Zrotation
                  JOINT rightThumbIntermediate
                  {
                    OFFSET -0.31036620999999986 -0.08229339117999834 0.15440884469999996
                    CHANNELS 3 Yrotation Xrotation Zrotation
                    JOINT rightThumbDistal
                    {
                      OFFSET -0.21631306399999906 -0.08825326400000111 0.018656797720000014
                      CHANNELS 3 Yrotation Xrotation Zrotation
                      End Site
                      {
                        OFFSET -0.21631306399999906 -0.08825326400000111 0.018656797720000014
                      }
                    }
                  }
                }
              }
            }
          }
        }
      }
    }
  }
}
MOTION
Frames: 7
Frame Time: 0.03333333333333333
0 11.682712981546562 0 0 0 0 0 0 -5.826343164929014 -0.3712483961610101 -3.6333298826370974 5.838118207697276 0 0 0 0 0 0 0 0 5.826343164929014 0.3712483961610101 -3.6333298826370974 -5.838118207697276 0 0 0 0 0 0 0 -4.610651315171937 0 0 3.0831277533083026 0 0 0 0 0 1.5275236235667615 0 0 0 0 0 0 0 0 0 0 0 0 0 0 0 0 0 0 0 0 0 0 0 0 0 0 0 0 0 0 0 0 0 0 0 0 0 0 0 0 0 0 0 0 0 0 0 0 0 0 0 0 0 0 0 0 1.5275236235667615 0 0 0 0 0 0 0 0 0 0 0 0 0 0 1.5275236235667615 0 0 0 0 0 0 0 0 0 0 0 0 0 0 0 0 0 0 0 0 0 0 0 0 0 0 0 0 0 0 0 0 0 0 0 0 0 0 0 0 0 0 0 0 0 0 0 0 0 0 0 0 0 0 0
-0.7989224688199847 -6.105205149318417 1.0504570215653268 -178.06112275802965 -23.989116379430413 -0.8356767370429583 -79.92630978102729 -56.26688166605978 118.71483667646508 -110.63497809995637 43.5571855672768 -122.93717837297021 27.077890221647092 8.350739446986829 16.20249739580819 0 0 0 0.7925397783755167 24.647654861248597 -7.07138160694569 82.04627163116523 52.03644429216373 87.27250265651537 -51.49442875322774 42.20481107229181 -30.56283930752903 0 0 0 -9.003168807520183 28.16638243733911 -7.070019013183441 -0.6259214474990192 -24.059890020848563 -2.1177639954691956 0 0 0 -0.3588316596625774 -6.882311992079706 -25.36563533117405 -26.992493077112236 -23.947782927184083 -1.6879506641813313 -69.40478643060949 -22.6241848259579 -32.28175620947016 40.55170233048951 -1.5915659654588337 -43.52897354574183 0 0 0 0 0 0 0 0 0 0 0 0 0 0 0 0 0 0 0 0 0 0 0 0 0 0 0 0 0 0 0 0 0 0 0 0 0 0 0 0 0 0 0 0 0 0 1.5275236235667615 0 0 0 0 0 0 0 0 0 0 0 0 0 -1.5765245500708265 -6.576218531331373 17.27780721011588 45.07426721440533 -21.945807915006906 0.578338607128165 80.89023834380855 -20.529495665226 23.89957442477814 -13.478885423308109 -32.2392150214506 27.14866445578915 0 0 0 0 0 0 0 0 0 0 0 0 0 0 0 0 0 0 0 0 0 0 0 0 0 0 0 0 0 0 0 0 0 0 0 0 0 0 0 0 0 0 0 0 0
-0.7989224688199847 -6.129569799707583 1.0646096144235675 -178.03914118654757 -25.039732559892276 -0.8786512663033397 -79.19407957751277 -56.40190345573183 118.2799888724407 -110.63497809995637 43.5571855672768 -122.93717837297021 28.031477127283097 10.950675252186512 16.45132742532074 0 0 0 0.7597363632258951 25.5799827846585 -7.159323103765649 82.35383721689563 52.06507171978653 87.65865526020558 -51.49442694932585 42.20481107229181 -30.562837322615394 0 0 0 -9.003168807520183 28.16638243733911 -7.070019013183441 -0.6139438674067341 -21.407273330659287 -2.148758553477573 0 0 0 -1.092460786039104 -8.330398299070831 -24.41934011089896 -26.992496406822422 -23.947782927184083 -1.6879506641813313 -67.96289916802561 -21.77689070863782 -31.897907460546755 39.27067119068807 -2.0852978910834445 -44.10318259600291 0 0 0 0 0 0 0 0 0 0 0 0 0 0 0 0 0 0 0 0 0 0 0 0 0 0 0 0 0 0 0 0 0 0 0 0 0 0 0 0 0 0 0 0 0 -0.15190016036284204 1.4115524980552825 -0.2049225747994912 0 -0.3080460038289643 0 0 0 0 0 0 0 0 0 0 -1.1597461078732756 -8.37526189325936 16.627718083067446 45.07427502824777 -21.945809755953324 0.5783385496015189 80.24338220995976 -20.257602034513507 23.822925354525466 -13.218992978027067 -32.65588288898264 27.142233286676273 0 0 0 0 0 0 0 0 0 0 0 0 0 0 0 0 0 0 0 0 0 0 0 0 0 0 0 0 0 0 0 0 0 0 0 0 0 0 0 0 0 0 0 0 0
-0.7989224688199847 -6.153933913312206 1.0787624756740797 -178.01602337498733 -26.091755716141588 -0.9225280552651148 -78.45725389467704 -56.53385714552987 117.84042612652226 -110.63497809995637 43.5571855672768 -122.93717837297021 29.013223293757452 13.564842684643626 16.749386770425364 0 0 0 0.7250330199109025 26.51327447955601 -7.248664283871399 82.66194066032075 52.092411239522356 88.04534449458278 -51.494432361031784 42.204815682623305 -30.562841651804508 0 0 0 -9.003169764046381 28.16638631117071 -7.07002141217169 -0.6035977148737488 -18.730737605273628 -2.178913174899337 0 0 0 -1.8560168276714197 -9.77131840757814 -23.446938902848267 -26.992491412257063 -23.947784795569966 -1.6879506641813313 -66.51721929782921 -20.935301083122646 -31.49181288653631 37.990645497954205 -2.5931466799052356 -44.66797068163059 0 0 0 0 0 0 0 0 0 0 0 0 0 0 0 0 0 0 0 0 0 0 0 0 0 0 0 0 0 0 0 0 0 0 0 0 0 0 0 0 0 0 0 0 0 -0.3034380040238411 1.2949920308316203 -0.40961039852327674 0 -0.6162479834582076 0 0 0 0 0 0 0 0 0 0 -0.7179944787186593 -10.177862797825671 15.957831563026673 45.07426721440533 -21.945809755953324 0.5783394125012119 79.59682887862606 -19.98635093273636 23.743091602155562 -12.957744740500516 -33.07264759024324 27.133511267283566 0 0 0 0 0 0 0 0 0 0 0 0 0 0 0 0 0 0 0 0 0 0 0 0 0 0 0 0 0 0 0 0 0 0 0 0 0 0 0 0 0 0 0 0 0
-0.7989224688199847 -6.178298563701371 1.0929150685323203 -177.99178685198805 -27.145028402750306 -0.967327784790801 -77.71590412203754 -56.66270507291208 117.39617927065412 -110.63497809995637 43.5571855672768 -122.93717837297021 30.027257541321713 16.1893436571285 17.09991772342534 0 0 0 0.688366002894476 27.447390251419318 -7.339471062618471 82.97051030523757 52.11849385966762 88.43247538718441 -51.49442875322774 42.20481107229181 -30.56283930752903 0 0 0 -9.003169764046381 28.16638631117071 -7.070020931624568 -0.5948046621092774 -16.03291705216104 -2.2083553530879136 0 0 0 -2.650448843637209 -11.203516528385887 -22.447396313614327 -26.992496406822422 -23.947782927184083 -1.6879506641813313 -65.06777699755827 -20.10047120534361 -31.063850752528896 36.71198309497141 -3.1147506015672075 -45.22285213743969 0 0 0 0 0 0 0 0 0 0 0 0 0 0 0 0 0 0 0 0 0 0 0 0 0 0 0 0 0 0 0 0 0 0 0 0 0 0 0 0 0 0 0 0 0 -0.45461272481205955 1.1778442795898219 -0.6140611453046324 0 -0.9246000416532065 0 0 0 0 0 0 0 0 0 0 -0.25003151124662554 -11.9825939033349 15.26674769760605 45.07427502824777 -21.94581159689976 0.578337801755118 78.95060594212228 -19.715805516317065 23.660093005006793 -12.695094870786143 -33.48947538020949 27.122456754576515 0 0 0 0 0 0 0 0 0 0 0 0 0 0 0 0 0 0 0 0 0 0 0 0 0 0 0 0 0 0 0 0 0 0 0 0 0 0 0 0 0 0 0 0 0
-0.7989224688199847 -6.202662945698266 1.1070679297828323 -177.9663493547568 -28.199346075084918 -1.0131156728729254 -76.97007598852967 -56.78838478300572 116.94731040878972 -110.63497809995637 43.55719027978691 -122.93717895772458 31.078135382938548 18.82006400156458 17.506642357613046 0 0 0 0.649666508641475 28.38220061607648 -7.431819279199902 83.27958902197155 52.14328398917936 88.82012628935843 -51.49442875322774 42.20481107229181 -30.56283930752903 0 0 0 -9.003168807520183 28.16638243733911 -7.070019013183441 -0.5874978890581849 -13.31658465942748 -2.237205743990735 0 0 0 -3.4767326914053673 -12.625370715143168 -21.419622571199426 -26.992489716234584 -23.947779190412405 -1.6879506641813313 -63.614694404155664 -19.273454115290306 -30.614418457871647 35.43505676925669 -3.6497093035477834 -45.767364903938464 0 0 0 0 0 0 0 0 0 0 0 0 0 0 0 0 0 0 0 0 0 0 0 0 0 0 0 0 0 0 0 0 0 0 0 0 0 0 0 0 0 0 0 0 0 -0.6054195912057767 1.060113528914333 -0.818272546335448 0 -1.2330989740423859 0 0 0 0 0 0 0 0 0 0 0.24548744491840707 -13.787956501554783 14.552955169788174 45.07426721440533 -21.945807915006906 0.5783378221177392 78.30474368546645 -19.446030412981553 23.573963345101074 -12.431027266342726 -33.90635647204653 27.109059980114736 0 0 0 0 0 0 0 0 0 0 0 0 0 0 0 0 0 0 0 0 0 0 0 0 0 0 0 0 0 0 0 0 0 0 0 0 0 0 0 0 0 0 0 0 0
-0.7989224688199847 -6.227027596087431 1.121220522641073 -177.93965643111503 -29.254545971694135 -1.059949693131193 -76.2198749683184 -56.91086495666308 116.49394285806541 -110.63497809995637 43.5571855672768 -122.93717837297021 32.170927576459285 21.452679408637856 17.973827530822568 0 0 0 0.6088610450020915 29.317582373275766 -7.52578542841301 83.58906694477814 52.16679617693465 89.20814998884467 -51.4944186672708 42.20481107229181 -30.562831008513 0 0 0 -9.003168807520183 28.16638243733911 -7.070019013183441 -0.5816257717459831 -10.584626957937076 -2.2655761906932823 0 0 0 -4.3358397708709715 -14.03523117032568 -20.362569986455924 -26.992489716234584 -23.94778105879823 -1.6879506641813313 -62.158062911684254 -18.455287113914242 -30.14394084747208 34.16023766858437 -4.1976002517289945 -46.30107395609057 0 0 0 0 0 0 0 0 0 0 0 0 0 0 0 0 0 0 0 0 0 0 0 0 0 0 0 0 0 0 0 0 0 0 0 0 0 0 0 0 0 0 0 0 0 -0.7558557478283643 0.9418027674846492 -1.022241427730513 0 -1.541739037674752 0 0 0 0 0 0 0 0 0 0 0.7700113070046095 -15.592405524716419 13.814857621483966 45.07426721440533 -21.945807915006906 0.5783393753370872 77.65926107940065 -19.17708087913298 23.48472768756843 -12.165471121759495 -34.323243582215134 27.093245125928853 0 0 0 0 0 0 0 0 0 0 0 0 0 0 0 0 0 0 0 0 0 0 0 0 0 0 0 0 0 0 0 0 0 0 0 0 0 0 0 0 0 0 0 0 0
